<?xml version="1.0" encoding="UTF-8"?>
<svg version="1.1" xmlns="http://www.w3.org/2000/svg" width="1629" height="1098">
<path d="M0 0 C1.0759996 0.00323273 1.0759996 0.00323273 2.17373657 0.00653076 C41.96254087 0.19728503 80.21712699 13.03974255 111.875 37.3125 C112.51824219 36.9 113.16148437 36.4875 113.82421875 36.0625 C115.76123322 34.82457919 117.70168395 33.59202751 119.64453125 32.36328125 C121.69299345 31.06286691 123.73319593 29.74927263 125.76171875 28.41796875 C155.24028272 9.49774011 189.0263143 -0.19090384 224 0 C225.0759996 0.00323273 225.0759996 0.00323273 226.17373657 0.00653076 C276.60221936 0.24829345 322.18396956 21.12939147 357.53637695 56.66918945 C366.190142 65.62481315 373.49194365 75.63776412 379.875 86.3125 C381.01775391 84.77142578 381.01775391 84.77142578 382.18359375 83.19921875 C400.66365154 58.3515006 420.44272395 37.28401337 447.875 22.3125 C448.81545166 21.79695557 448.81545166 21.79695557 449.77490234 21.27099609 C476.40088614 6.87364226 505.74659627 -0.16904548 536 0 C536.71833008 0.00248749 537.43666016 0.00497498 538.17675781 0.00753784 C565.79487942 0.15462971 592.08618192 5.90601064 616.875 18.3125 C617.52082031 18.62799805 618.16664063 18.94349609 618.83203125 19.26855469 C634.73693014 27.08333444 648.84424453 37.34907013 661.875 49.3125 C662.3901416 49.78236328 662.9052832 50.25222656 663.43603516 50.73632812 C695.70702065 80.53130542 715.95376169 124.64193481 718.875 168.3125 C721.06236827 223.67436208 703.87260976 271.2333397 666.390625 312.015625 C635.09740886 344.53602609 589.3287829 364.24225245 544.390625 365.59765625 C491.42686231 366.51205889 444.42232734 348.58673282 406.18701172 311.90942383 C396.17552069 302.08212337 387.99314651 290.71047075 379.875 279.3125 C379.27365234 280.31216797 379.27365234 280.31216797 378.66015625 281.33203125 C371.89021826 292.30823456 363.63826909 301.88581441 354.875 311.3125 C354.2253125 312.02792969 353.575625 312.74335937 352.90625 313.48046875 C325.87410346 342.0201773 287.18501018 358.58511687 248.875 364.3125 C248.18712402 364.415625 247.49924805 364.51875 246.79052734 364.625 C239.59909951 365.5617759 232.36686509 365.55605395 225.125 365.5625 C224.44103149 365.56317474 223.75706299 365.56384949 223.05236816 365.56454468 C182.672493 365.50158719 145.37094436 352.07544658 112.875 328.3125 C108.96879336 330.49150443 105.30248593 332.65142745 101.75 335.375 C64.79581027 361.4504146 15.39225367 370.78800635 -28.89404297 363.72314453 C-67.12294965 356.90984644 -99.77846627 339.69306445 -128.125 313.3125 C-128.84171875 312.66152344 -129.5584375 312.01054688 -130.296875 311.33984375 C-158.83555435 284.31142298 -175.39824452 245.61831188 -181.125 207.3125 C-181.228125 206.62462402 -181.33125 205.93674805 -181.4375 205.22802734 C-187.33191544 159.97786314 -175.07944591 112.08272679 -148.125 75.3125 C-142.48286441 68.00497555 -136.41598529 61.06621976 -130.125 54.3125 C-129.44050781 53.57386719 -128.75601563 52.83523438 -128.05078125 52.07421875 C-121.6483915 45.41147304 -114.53279351 39.80063312 -107.125 34.3125 C-106.56635254 33.89355469 -106.00770508 33.47460938 -105.43212891 33.04296875 C-75.31984435 10.75722511 -37.18369772 -0.20296719 0 0 Z " fill="#1FB9EE" transform="translate(545.125,363.6875)"/>
<path d="M0 0 C1.07749512 0.00373123 1.07749512 0.00373123 2.17675781 0.00753784 C29.79487942 0.15462971 56.08618192 5.90601064 80.875 18.3125 C81.52082031 18.62799805 82.16664063 18.94349609 82.83203125 19.26855469 C98.73693014 27.08333444 112.84424453 37.34907013 125.875 49.3125 C126.3901416 49.78236328 126.9052832 50.25222656 127.43603516 50.73632812 C159.70702065 80.53130542 179.95376169 124.64193481 182.875 168.3125 C185.06236827 223.67436208 167.87260976 271.2333397 130.390625 312.015625 C99.09740886 344.53602609 53.3287829 364.24225245 8.390625 365.59765625 C-44.57610208 366.51211007 -91.57365953 348.58471609 -129.81298828 311.90966797 C-162.01863113 280.29129832 -181.64773189 233.09509523 -182.36181641 188.05786133 C-182.51610422 153.73453787 -175.06074272 122.40842805 -158.24194336 92.36914062 C-157.15046882 90.35939602 -156.1591566 88.3221749 -155.17578125 86.2578125 C-153.07352404 82.0125688 -150.43320199 78.31893336 -147.5625 74.5625 C-147.0380127 73.87075684 -146.51352539 73.17901367 -145.97314453 72.46630859 C-141.04304544 66.05229263 -135.73894728 60.13529948 -130.125 54.3125 C-129.361875 53.48621094 -128.59875 52.65992188 -127.8125 51.80859375 C-116.41637684 39.81571414 -102.60366711 30.21441663 -88.125 22.3125 C-87.49803223 21.96880371 -86.87106445 21.62510742 -86.22509766 21.27099609 C-59.59911386 6.87364226 -30.25340373 -0.16904548 0 0 Z " fill="#00AAE8" transform="translate(1081.125,363.6875)"/>
<path d="M0 0 C1.0759996 0.00323273 1.0759996 0.00323273 2.17373657 0.00653076 C41.96254087 0.19728503 80.21712699 13.03974255 111.875 37.3125 C111.54635216 40.25061168 110.95787618 41.23528142 108.7578125 43.28515625 C107.84773438 43.97480469 106.93765625 44.66445313 106 45.375 C85.71632106 61.46567037 70.67461805 82.94322683 59.875 106.3125 C59.34132813 107.45203125 58.80765625 108.5915625 58.2578125 109.765625 C43.15278658 143.4193097 38.56281559 184.16503863 46.875 220.3125 C47.06835938 221.1698877 47.26171875 222.02727539 47.4609375 222.91064453 C56.44099805 261.48471636 76.79951554 294.94241064 106.46484375 321.15625 C108.68222777 323.14003603 110.79354519 325.18758093 112.875 327.3125 C80.07839616 351.85870819 42.25013011 365.52589414 1.125 365.5625 C0.44103149 365.56317474 -0.24293701 365.56384949 -0.94763184 365.56454468 C-49.49840041 365.4888477 -92.82116322 346.16784487 -128.125 313.3125 C-128.84171875 312.66152344 -129.5584375 312.01054688 -130.296875 311.33984375 C-158.83555435 284.31142298 -175.39824452 245.61831188 -181.125 207.3125 C-181.228125 206.62462402 -181.33125 205.93674805 -181.4375 205.22802734 C-187.33191544 159.97786314 -175.07944591 112.08272679 -148.125 75.3125 C-142.48286441 68.00497555 -136.41598529 61.06621976 -130.125 54.3125 C-129.44050781 53.57386719 -128.75601563 52.83523438 -128.05078125 52.07421875 C-121.6483915 45.41147304 -114.53279351 39.80063312 -107.125 34.3125 C-106.56635254 33.89355469 -106.00770508 33.47460938 -105.43212891 33.04296875 C-75.31984435 10.75722511 -37.18369772 -0.20296719 0 0 Z " fill="#6CCAF2" transform="translate(545.125,363.6875)"/>
<path d="M0 0 C4.06155236 2.23830075 7.38589553 4.9681108 10.75 8.125 C11.27730713 8.61726074 11.80461426 9.10952148 12.34790039 9.61669922 C13.4122159 10.61432344 14.47419055 11.61445148 15.53369141 12.6171875 C16.78613011 13.79830852 18.05368343 14.96336771 19.32421875 16.125 C30.44081117 26.64569375 39.4750401 39.73484634 47 53 C47.49209961 53.85295654 47.49209961 53.85295654 47.99414062 54.72314453 C56.84478303 70.15253882 63.00875314 86.67836341 67 104 C67.16516113 104.70092773 67.33032227 105.40185547 67.50048828 106.12402344 C73.84791135 134.59881276 72.38418509 169.44899507 63 197 C62.63648438 198.07797852 62.63648438 198.07797852 62.265625 199.17773438 C58.37363039 210.59615975 53.72838056 221.3872046 48 232 C47.45859375 233.02222656 46.9171875 234.04445313 46.359375 235.09765625 C38.53833462 249.20210529 28.16843468 261.45711343 17 273 C16.01386719 274.04607422 16.01386719 274.04607422 15.0078125 275.11328125 C10.71774231 279.57139567 5.95360813 283.30445108 1 287 C-3.4333557 284.19022 -7.34930995 281.08829414 -11.1875 277.5 C-12.03332642 276.70952271 -12.03332642 276.70952271 -12.89624023 275.90307617 C-27.7371969 261.87583708 -39.38890269 246.00724779 -49 228 C-49.77923828 226.58074219 -49.77923828 226.58074219 -50.57421875 225.1328125 C-56.95424172 213.04258525 -61.42189517 200.02980648 -64.8125 186.8125 C-65.007229 186.06677734 -65.20195801 185.32105469 -65.40258789 184.55273438 C-68.51631263 171.73038572 -69.33582593 158.80154171 -69.26074219 145.66333008 C-69.24998689 143.43478323 -69.26073797 141.20703897 -69.2734375 138.97851562 C-69.30267377 110.06940943 -61.79421573 82.33821672 -48 57 C-47.67386719 56.38930664 -47.34773437 55.77861328 -47.01171875 55.14941406 C-35.81364579 34.25898512 -19.29278903 13.95749922 0 0 Z " fill="#00ABE9" transform="translate(657,403)"/>
</svg>
